<svg width="307" height="257" viewBox="0 0 307 257" fill="none" xmlns="http://www.w3.org/2000/svg">
<g clip-path="url(#clip0_450_4606)">
<path d="M294.689 256.065H12.3108C2.71726 256.065 -3.17857 245.564 1.81686 237.374L143.006 5.88913C147.796 -1.96451 159.2 -1.96451 163.994 5.88913L305.183 237.374C310.179 245.564 304.283 256.065 294.689 256.065Z" fill="#F20206"/>
<path d="M21.9585 238.358L153.5 22.6926L285.041 238.358H21.9585Z" fill="white"/>
<path d="M153.5 223.84C162.106 223.84 169.082 216.863 169.082 208.257C169.082 199.652 162.106 192.675 153.5 192.675C144.894 192.675 137.917 199.652 137.917 208.257C137.917 216.863 144.894 223.84 153.5 223.84Z" fill="black"/>
<path d="M155.688 183.466C155.688 183.466 177.228 126.251 177.228 97.4735C177.228 84.3681 166.605 73.746 153.5 73.746C140.395 73.746 129.772 84.3681 129.772 97.4735C129.772 126.251 151.311 183.466 151.311 183.466H155.685H155.688Z" fill="black"/>
</g>
<defs>
<clipPath id="clip0_450_4606">
<rect width="307" height="256.065" fill="white"/>
</clipPath>
</defs>
</svg>
